<?xml version="1.0" encoding="UTF-8" standalone="no"?>
<svg
   xmlns:dc="http://purl.org/dc/elements/1.1/"
   xmlns:cc="http://creativecommons.org/ns#"
   xmlns:rdf="http://www.w3.org/1999/02/22-rdf-syntax-ns#"
   xmlns:svg="http://www.w3.org/2000/svg"
   xmlns="http://www.w3.org/2000/svg"
   xmlns:sodipodi="http://sodipodi.sourceforge.net/DTD/sodipodi-0.dtd"
   xmlns:inkscape="http://www.inkscape.org/namespaces/inkscape"
   sodipodi:docname="en_de.svg"
   width="30"
   height="20"
   viewBox="0 0 7.9375003 5.2916667"
   version="1.1"
   id="svg8"
   inkscape:version="1.0 (4035a4fb49, 2020-05-01)">
  <defs
     id="defs2">
    <clipPath
       id="clipPath950"
       clipPathUnits="userSpaceOnUse">
      <path
         id="path952"
         style="opacity:1;fill:#ffffff;fill-opacity:1;stroke-width:0.764998;stroke-linecap:round;stroke-linejoin:round;paint-order:markers fill stroke"
         d="m -0.23113117,11.31175 -0.22117512,0.329179 3.38377269,2.27738 h -3.20238841 v 0.661458 H 2.7867724 l -3.23907869,2.179712 0.22117512,0.329695 3.62458467,-2.439127 v 2.218469 h 0.6614583 v -2.194181 l 3.5884115,2.414839 0.221692,-0.329695 -3.2395957,-2.179712 H 7.6665778 V 13.918309 H 4.4807256 L 7.8650153,11.640929 7.6433233,11.31175 4.0549118,13.72659 V 11.57685 H 3.3934535 v 2.174027 z" />
    </clipPath>
    <clipPath
       id="clipPath981"
       clipPathUnits="userSpaceOnUse">
      <path
         d="M -0.57309163,4.6782675 -1.2996623,5.7836263 1.7771525,7.8052083 H 0 V 9.128125 h 1.8779215 l -3.1775838,2.087728 0.72657067,1.105875 L 3.3072917,9.7720134 V 11.1125 H 4.6302083 V 9.6800294 L 8.6511516,12.321728 9.3772053,11.215853 6.1996217,9.128125 H 7.9375 V 7.8052083 H 6.3003906 L 9.3772053,5.7836263 8.6511516,4.6782675 4.6302083,7.3199667 V 5.8208333 H 3.3072917 v 1.4071492 z"
         style="opacity:1;fill:#ffffff;fill-opacity:1;stroke-width:0.764998;stroke-linecap:round;stroke-linejoin:round;paint-order:markers fill stroke"
         id="path983" />
    </clipPath>
    <clipPath
       id="clipPath1016"
       clipPathUnits="userSpaceOnUse">
      <rect
         rx="1.6837981"
         ry="1.8475006"
         y="5.7272897"
         x="-0.046773188"
         height="5.2916665"
         width="7.9375"
         id="rect1018"
         style="opacity:1;fill:#8f8f8f;fill-opacity:1;stroke-width:0.764998;stroke-linecap:round;stroke-linejoin:round;paint-order:markers fill stroke" />
    </clipPath>
    <filter
       height="1.0698699"
       y="-0.034934929"
       width="1.0503483"
       x="-0.025174155"
       id="filter1312"
       style="color-interpolation-filters:sRGB"
       inkscape:collect="always">
      <feGaussianBlur
         id="feGaussianBlur1314"
         stdDeviation="0.049954963"
         inkscape:collect="always" />
    </filter>
  </defs>
  <sodipodi:namedview
     inkscape:window-maximized="1"
     inkscape:window-y="-9"
     inkscape:window-x="-9"
     inkscape:window-height="1001"
     inkscape:window-width="1920"
     id="base"
     pagecolor="#ffffff"
     bordercolor="#666666"
     borderopacity="1.0"
     inkscape:pageopacity="0.0"
     inkscape:pageshadow="2"
     inkscape:zoom="22.627417"
     inkscape:cx="10.928743"
     inkscape:cy="8.1112644"
     inkscape:document-units="mm"
     inkscape:current-layer="layer1"
     inkscape:document-rotation="0"
     showgrid="false"
     units="px"
     inkscape:pagecheckerboard="true"
     borderlayer="true"
     objecttolerance="4"
     guidetolerance="4" />
  <metadata
     id="metadata5">
    <rdf:RDF>
      <cc:Work
         rdf:about="">
        <dc:format>image/svg+xml</dc:format>
        <dc:type
           rdf:resource="http://purl.org/dc/dcmitype/StillImage" />
        <dc:title></dc:title>
        <cc:license
           rdf:resource="http://artlibre.org/licence/lal" />
      </cc:Work>
      <cc:License
         rdf:about="http://artlibre.org/licence/lal">
        <cc:permits
           rdf:resource="http://creativecommons.org/ns#Reproduction" />
        <cc:permits
           rdf:resource="http://creativecommons.org/ns#Distribution" />
        <cc:permits
           rdf:resource="http://creativecommons.org/ns#DerivativeWorks" />
        <cc:requires
           rdf:resource="http://creativecommons.org/ns#ShareAlike" />
        <cc:requires
           rdf:resource="http://creativecommons.org/ns#Notice" />
        <cc:requires
           rdf:resource="http://creativecommons.org/ns#Attribution" />
      </cc:License>
    </rdf:RDF>
  </metadata>
  <g
     inkscape:label="Ebene 1"
     inkscape:groupmode="layer"
     id="layer1">
    <g
       style="stroke-width:0.998877"
       transform="matrix(1,0,0,1.0022494,3.0691667,1.746131)"
       id="g960">
      <path
         style="fill:#fde706;fill-opacity:1;stroke-width:0.764146;stroke-linecap:round;stroke-linejoin:round;paint-order:markers fill stroke"
         d="M 0.05291708,2.3405334 H 4.8147516 C 4.8332804,2.8014974 4.4638335,3.4756168 3.8100257,3.4839033 H 1.0930207 C 0.53373756,3.5095912 0.05240117,2.9672786 0.05291708,2.3405334 Z"
         id="path834"
         sodipodi:nodetypes="ccccc" />
      <path
         style="fill:#cf3b21;fill-opacity:1;stroke-width:0.764146;stroke-linecap:round;stroke-linejoin:round;paint-order:markers fill stroke"
         d="M 0.05291708,2.3405333 H 4.8147516 V 1.1971635 H 0.05291708 Z"
         id="path836" />
      <path
         sodipodi:nodetypes="ccccc"
         id="path855"
         d="M 0.05291708,1.1971635 H 4.8147516 C 4.8332804,0.73619954 4.4638335,0.06208014 3.8100257,0.05379364 H 1.0930207 C 0.53373756,0.02810574 0.05240117,0.57041834 0.05291708,1.1971635 Z"
         style="fill:#000000;fill-opacity:1;stroke-width:0.764146;stroke-linecap:round;stroke-linejoin:round;paint-order:markers fill stroke" />
    </g>
    <g
       id="g1050"
       transform="matrix(1,0,0,1.0022494,0.10583333,0.10571431)"
       style="stroke-width:0.998877;fill:#3e3e3e;fill-opacity:1;filter:url(#filter1312)">
      <path
         sodipodi:nodetypes="ccccc"
         id="path1044"
         d="M 0.05291708,2.3405334 H 4.8147516 C 4.8332804,2.8014974 4.4638335,3.4756168 3.8100257,3.4839033 H 1.0930207 C 0.53373756,3.5095912 0.05240117,2.9672786 0.05291708,2.3405334 Z"
         style="fill:#3e3e3e;fill-opacity:1;stroke-width:0.764146;stroke-linecap:round;stroke-linejoin:round;paint-order:markers fill stroke" />
      <path
         id="path1046"
         d="M 0.05291708,2.3405333 H 4.8147516 V 1.1971635 H 0.05291708 Z"
         style="fill:#3e3e3e;fill-opacity:1;stroke-width:0.764146;stroke-linecap:round;stroke-linejoin:round;paint-order:markers fill stroke" />
      <path
         style="fill:#3e3e3e;fill-opacity:1;stroke-width:0.764146;stroke-linecap:round;stroke-linejoin:round;paint-order:markers fill stroke"
         d="M 0.05291708,1.1971635 H 4.8147516 C 4.8332804,0.73619954 4.4638335,0.06208014 3.8100257,0.05379364 H 1.0930207 C 0.53373756,0.02810574 0.05240117,0.57041834 0.05291708,1.1971635 Z"
         id="path1048"
         sodipodi:nodetypes="ccccc" />
    </g>
    <path
       sodipodi:nodetypes="ccccccc"
       id="path1316"
       d="m 5.1089346,0.49408754 c 0.5452379,0.001869 1.426551,0.18753754 1.426551,0.72509026 L 6.9768624,1.2307492 6.2779953,1.5815404 5.5064979,1.2484609 5.9391404,1.2307492 c 0,-0.43439993 -0.3460585,-0.63835825 -0.8302058,-0.73666166 z"
       style="opacity:1;fill:#262261;fill-opacity:1;stroke-width:0.765;stroke-linecap:round;stroke-linejoin:round;paint-order:markers fill stroke" />
    <path
       style="opacity:1;fill:#262261;fill-opacity:1;stroke-width:0.765;stroke-linecap:round;stroke-linejoin:round;paint-order:markers fill stroke"
       d="M 2.9670737,4.9227706 C 2.4218358,4.9209006 1.5405227,4.7352331 1.5405227,4.1976804 L 1.0991459,4.186109 1.798013,3.8353178 2.5695104,4.1683973 2.1368679,4.186109 c 0,0.4343999 0.3460585,0.6383582 0.8302058,0.7366616 z"
       id="path1318"
       sodipodi:nodetypes="ccccccc" />
    <g
       style="stroke-width:1.60128"
       clip-path="url(#clipPath1016)"
       transform="matrix(0.60000007,0,0,0.65000004,0.08098001,-3.6698219)"
       id="g988">
      <rect
         ry="0"
         rx="0"
         y="5.7272887"
         x="-0.046772189"
         height="5.2916665"
         width="7.9375"
         id="rect979"
         style="opacity:1;fill:#096eb2;fill-opacity:1;stroke-width:1.22498;stroke-linecap:round;stroke-linejoin:round;paint-order:markers fill stroke" />
      <rect
         style="opacity:1;fill:#ffffff;fill-opacity:1;stroke-width:1.22498;stroke-linecap:round;stroke-linejoin:round;paint-order:markers fill stroke"
         id="rect886"
         width="7.9375"
         height="5.2916665"
         x="0"
         y="5.8208332"
         rx="0"
         ry="0"
         clip-path="url(#clipPath981)"
         transform="translate(-0.04677218,-0.09354368)" />
      <rect
         ry="0"
         rx="0"
         y="11.573158"
         x="-0.2716704"
         height="5.2916665"
         width="7.9375"
         id="rect948"
         style="opacity:1;fill:#cf3b21;fill-opacity:1;stroke-width:1.22498;stroke-linecap:round;stroke-linejoin:round;paint-order:markers fill stroke"
         clip-path="url(#clipPath950)"
         transform="translate(0.22489816,-5.8458697)" />
    </g>
  </g>
</svg>
