<?xml version="1.0" standalone="no"?>
<!DOCTYPE svg PUBLIC "-//W3C//DTD SVG 20010904//EN"
 "http://www.w3.org/TR/2001/REC-SVG-20010904/DTD/svg10.dtd">
<svg version="1.0" xmlns="http://www.w3.org/2000/svg"
 width="200.000000pt" height="150.000000pt" viewBox="0 0 200.000000 150.000000"
 preserveAspectRatio="xMidYMid meet">

<g transform="translate(0.000000,150.000000) scale(0.100000,-0.100000)"
fill="#000000" stroke="none">
<path d="M999 1454 c-1 -24 -2 -25 -6 -6 -5 24 -36 30 -63 12 -12 -7 -8 -10
14 -10 16 0 26 -3 23 -7 -4 -3 -2 -12 3 -18 7 -9 6 -16 -5 -25 -21 -17 -45 -5
-58 30 -6 17 -15 30 -20 30 -11 0 1 -40 18 -60 7 -8 18 -25 24 -37 10 -19 9
-23 -4 -23 -9 0 -19 8 -22 18 -13 35 -58 82 -79 82 -27 0 -46 -22 -38 -44 6
-14 2 -16 -22 -10 -16 4 -37 7 -47 6 -15 -1 -16 2 -6 14 7 8 18 13 26 10 7 -3
13 1 13 9 0 20 -6 19 -45 -5 -23 -14 -32 -28 -32 -45 0 -14 3 -25 8 -25 5 0 9
5 9 12 0 6 7 4 18 -5 22 -20 37 -11 19 11 -10 14 -9 15 8 8 11 -5 36 -8 55 -8
31 1 32 0 13 -8 -13 -5 -23 -18 -23 -30 0 -11 -4 -20 -10 -20 -5 0 -10 7 -10
15 0 8 -5 15 -11 15 -5 0 -8 -4 -5 -9 3 -5 -1 -14 -8 -21 -12 -9 -19 -7 -33 7
-10 10 -30 19 -43 21 -25 3 -25 3 5 -21 16 -14 34 -23 39 -20 4 3 12 -1 17 -8
8 -12 10 -12 18 0 7 11 13 12 23 3 11 -9 17 -9 26 0 19 19 61 -36 86 -114 5
-16 9 -15 45 9 23 14 45 40 52 57 13 35 15 30 22 -36 4 -47 4 -47 -27 -47 -31
0 -112 -18 -88 -20 22 -2 13 -37 -13 -49 -26 -12 -32 -27 -15 -37 19 -12 -9
-34 -62 -50 -48 -14 -78 -12 -78 6 0 5 9 9 19 9 11 0 23 5 26 10 4 7 -3 8 -22
4 -40 -9 -49 -20 -32 -40 11 -13 26 -15 81 -12 67 5 68 5 62 -18 -5 -18 2 -31
24 -53 16 -17 27 -33 24 -36 -10 -9 -92 -5 -92 5 0 6 5 10 11 10 5 0 7 5 4 10
-3 6 -26 10 -50 10 -24 0 -47 5 -50 10 -7 11 -48 14 -58 3 -4 -3 1 -12 11 -20
16 -12 15 -14 -10 -34 -35 -26 -36 -41 -3 -33 15 4 25 2 25 -4 0 -6 -13 -13
-29 -17 -16 -3 -37 -15 -47 -27 -11 -11 -38 -34 -61 -50 -43 -29 -57 -58 -27
-58 8 0 12 4 9 10 -3 5 3 10 15 10 11 0 24 8 27 18 16 41 50 64 99 67 27 1 66
10 87 18 l37 16 15 -34 c13 -32 18 -35 54 -35 26 0 53 -9 77 -25 42 -28 64
-32 64 -10 0 8 -8 15 -18 15 -15 0 -78 38 -111 67 -3 2 0 8 5 13 16 16 79 -14
79 -37 0 -11 9 -19 23 -21 19 -3 22 1 22 27 0 17 -5 31 -11 31 -6 0 -7 5 -2
13 4 6 9 30 10 51 2 21 8 45 14 52 6 7 9 23 7 36 -2 19 1 23 20 21 12 -2 22 2
22 7 0 6 7 10 16 10 9 0 14 5 12 11 -4 13 -5 13 -40 4 -16 -4 -28 -11 -28 -16
0 -5 -4 -9 -10 -9 -6 0 -10 34 -10 83 0 81 0 82 29 95 15 7 36 10 45 6 17 -6
21 -19 9 -27 -5 -2 -2 -2 6 0 7 2 20 -2 27 -8 33 -27 10 12 -37 62 l-51 54 5
-37 c4 -27 2 -38 -7 -38 -14 0 -26 62 -26 135 0 39 4 45 38 66 35 22 36 23 13
27 -17 3 -30 -3 -42 -19 -10 -13 -21 -21 -24 -17 -7 7 16 48 27 48 5 0 8 9 8
19 0 11 5 23 10 26 12 7 44 -14 35 -23 -3 -3 2 -14 11 -24 16 -16 15 -21 -5
-69 -24 -58 -25 -69 -11 -69 6 0 10 5 10 11 0 40 62 128 100 142 12 4 11 6 -3
6 -10 1 -29 -6 -42 -15 -15 -10 -25 -12 -25 -5 0 6 0 14 0 19 0 4 5 7 10 7 22
0 13 20 -10 22 -14 2 -42 5 -62 9 -36 6 -38 5 -39 -22z m-49 -160 c0 -8 -4
-14 -10 -14 -5 0 -10 9 -10 21 0 11 5 17 10 14 6 -3 10 -13 10 -21z m5 -214
c-3 -5 -11 -10 -16 -10 -6 0 -7 5 -4 10 3 6 11 10 16 10 6 0 7 -4 4 -10z m15
-49 c0 -10 7 -24 15 -31 17 -14 20 -66 4 -75 -7 -5 -9 4 -7 26 3 32 1 34 -24
32 -16 -1 -28 3 -28 8 0 6 -9 7 -22 3 -20 -6 -21 -5 -6 10 9 9 24 16 32 16 9
0 16 7 16 15 0 8 5 15 10 15 6 0 10 -8 10 -19z m-245 -140 c3 -5 1 -12 -5 -16
-5 -3 -10 1 -10 9 0 18 6 21 15 7z m254 -16 c2 -2 -4 -11 -13 -20 -9 -9 -16
-20 -16 -25 0 -5 -7 -7 -15 -4 -9 4 -15 19 -15 36 0 28 2 30 27 23 16 -4 30
-8 32 -10z m-89 -40 c-14 -17 -50 -21 -50 -5 0 6 9 10 19 10 11 0 23 5 26 11
4 6 9 8 12 5 3 -3 0 -12 -7 -21z m-50 -29 c0 -3 -4 -8 -10 -11 -5 -3 -10 -1
-10 4 0 6 5 11 10 11 6 0 10 -2 10 -4z"/>
<path d="M1220 1420 c0 -11 -4 -20 -9 -20 -5 0 -14 -13 -19 -29 -9 -26 -8 -30
16 -41 22 -10 28 -9 40 7 11 16 10 19 -10 24 -23 6 -23 6 5 19 15 8 26 19 23
26 -2 6 1 17 7 23 8 8 3 11 -21 11 -25 0 -32 -4 -32 -20z"/>
<path d="M1290 1414 c0 -12 7 -24 15 -28 23 -8 18 -28 -5 -21 -14 5 -20 2 -20
-9 0 -9 -9 -25 -20 -36 -27 -27 -25 -32 6 -24 18 5 25 3 20 -4 -4 -6 2 -8 14
-5 11 3 20 14 20 24 0 12 5 16 15 13 22 -9 41 7 21 18 -9 5 -16 14 -16 21 -1
7 -12 26 -25 42 -23 27 -25 28 -25 9z m25 -74 c-3 -5 -10 -10 -16 -10 -5 0 -9
5 -9 10 0 6 7 10 16 10 8 0 12 -4 9 -10z"/>
<path d="M1173 1278 c-18 -18 -35 -46 -38 -63 -7 -29 -7 -29 8 -10 9 11 17 25
17 31 0 17 48 57 59 50 7 -4 8 -1 5 8 -9 23 -16 20 -51 -16z"/>
<path d="M1090 1290 c0 -5 5 -10 11 -10 5 0 7 5 4 10 -3 6 -8 10 -11 10 -2 0
-4 -4 -4 -10z"/>
<path d="M1105 1260 c-3 -5 -1 -10 4 -10 6 0 11 5 11 10 0 6 -2 10 -4 10 -3 0
-8 -4 -11 -10z"/>
<path d="M1305 1170 c-37 -14 -50 -38 -38 -70 9 -23 7 -30 -8 -44 -29 -24 -24
-39 10 -31 32 7 51 -9 32 -28 -7 -7 -38 -14 -69 -18 -44 -4 -52 -7 -37 -14 11
-5 23 -13 27 -19 5 -7 8 -7 8 2 0 6 10 12 22 12 20 0 21 -1 3 -20 -10 -11 -25
-20 -33 -20 -23 0 -61 40 -55 56 3 8 -1 14 -10 14 -11 0 -15 -8 -14 -27 2 -23
10 -30 50 -45 45 -17 48 -17 75 0 16 9 27 23 25 30 -3 7 4 12 14 12 10 0 37
18 58 40 23 23 48 40 62 40 22 0 63 35 63 54 0 5 -9 0 -21 -13 -12 -13 -27
-20 -36 -16 -9 3 -26 -2 -39 -10 -22 -14 -24 -14 -24 4 0 11 -9 23 -21 26 -12
4 -18 12 -15 21 3 8 1 14 -3 14 -23 0 -20 -35 4 -57 14 -13 25 -26 25 -29 0
-16 -22 -44 -31 -38 -7 4 -6 10 1 19 8 10 5 18 -14 33 -37 28 -48 64 -30 91
18 26 41 27 67 4 14 -13 19 -14 15 -4 -7 23 -41 40 -63 31z"/>
<path d="M621 1151 c-8 -5 -11 -16 -8 -25 7 -18 23 -21 32 -5 5 7 14 4 26 -7
21 -18 25 -49 9 -59 -5 -3 -10 -12 -10 -18 0 -7 7 -4 14 6 7 9 18 17 25 17 18
0 13 65 -7 83 -20 18 -59 22 -81 8z"/>
<path d="M420 1110 c-23 -7 -22 -8 11 -9 45 -1 81 -36 69 -66 -14 -32 -11 -43
10 -50 29 -9 25 -27 -5 -19 -27 7 -35 -10 -10 -20 20 -7 19 -26 -2 -26 -13 0
-14 -3 -5 -12 13 -13 42 6 42 28 0 7 9 18 20 24 11 6 20 17 20 24 0 18 -25 27
-38 14 -12 -12 -24 4 -17 24 11 28 54 13 85 -30 17 -23 35 -42 40 -42 14 0 12
7 -7 29 -10 10 -29 31 -42 45 -13 14 -34 26 -46 26 -15 0 -26 8 -30 20 -5 16
-55 53 -67 49 -2 -1 -14 -5 -28 -9z"/>
<path d="M1511 1084 c-17 -14 -31 -31 -31 -37 0 -7 -14 -13 -30 -14 -21 -2
-45 -16 -76 -48 -25 -25 -50 -45 -56 -45 -6 0 -5 -7 3 -16 10 -12 10 -17 1
-23 -9 -6 -7 -14 8 -33 15 -20 17 -28 8 -32 -10 -5 -9 -8 2 -13 8 -3 31 -23
50 -43 61 -64 99 -85 156 -85 47 0 50 2 46 23 -3 15 -8 20 -16 14 -9 -8 -33
-9 -83 -3 -7 0 -13 10 -13 21 0 29 -21 70 -37 70 -7 0 -21 9 -30 20 -10 11
-23 20 -30 20 -7 0 -13 5 -13 10 0 16 26 11 43 -8 19 -21 89 -18 108 4 9 11 9
14 -1 14 -10 0 -9 4 1 16 11 14 9 15 -23 9 -33 -6 -36 -5 -46 24 -10 29 -10
31 24 40 25 7 43 6 60 -1 40 -19 41 2 1 35 -44 38 -46 54 -11 68 21 7 31 6 44
-6 22 -20 30 -19 30 5 0 18 -26 40 -49 40 -5 0 -23 -12 -40 -26z m-18 -78 c4
-9 0 -15 -11 -14 -9 0 -31 -5 -49 -10 -26 -8 -31 -8 -26 4 3 9 13 12 23 9 10
-3 24 1 32 9 17 19 24 20 31 2z m-63 -53 c0 -14 -19 -38 -25 -32 -8 8 5 39 16
39 5 0 9 -3 9 -7z m-9 -54 c21 -7 36 -16 33 -21 -3 -5 -11 -5 -18 1 -7 6 -30
15 -52 20 -21 5 -31 9 -20 10 10 1 36 -4 57 -10z m-14 -81 c31 -22 44 -48 23
-48 -5 0 -10 7 -10 15 0 8 -3 15 -7 15 -12 1 -59 40 -49 40 6 0 25 -10 43 -22z"/>
<path d="M1020 1090 c0 -5 5 -10 10 -10 6 0 10 5 10 10 0 6 -4 10 -10 10 -5 0
-10 -4 -10 -10z"/>
<path d="M1061 1087 c-6 -6 -11 -14 -11 -17 0 -11 53 -5 57 6 5 16 -33 24 -46
11z"/>
<path d="M1152 1086 c7 -8 15 -12 17 -11 5 6 -10 25 -20 25 -5 0 -4 -6 3 -14z"/>
<path d="M615 1080 c-3 -5 -21 -10 -38 -11 -27 0 -29 -2 -12 -9 31 -13 39 -12
53 10 7 11 10 20 8 20 -3 0 -8 -4 -11 -10z"/>
<path d="M417 1066 c-12 -9 -14 -16 -8 -21 6 -3 18 1 27 9 9 9 20 14 25 11 20
-13 10 -22 -73 -63 -4 -2 -17 7 -29 19 l-22 22 -18 -21 c-9 -12 -15 -31 -12
-42 3 -11 0 -20 -6 -20 -14 0 -14 -37 0 -45 6 -4 16 0 22 9 11 15 16 12 48
-21 33 -35 35 -40 20 -53 -15 -14 -29 -13 -24 2 5 13 -32 27 -46 18 -8 -4 -11
-15 -8 -24 5 -11 1 -16 -12 -16 -11 0 -21 4 -23 10 -5 15 -50 17 -55 2 -3 -7
4 -16 15 -19 18 -4 20 -11 16 -46 -3 -23 -9 -43 -15 -45 -15 -6 -10 -22 7 -22
8 0 12 -4 9 -10 -3 -5 -1 -10 4 -10 6 0 11 -5 11 -11 0 -7 -10 -9 -25 -5 -14
4 -25 2 -25 -3 0 -17 45 -20 69 -4 22 14 23 17 8 28 -18 13 -23 26 -9 24 18
-3 32 2 32 12 0 14 -26 39 -40 39 -6 0 -10 6 -8 12 6 16 41 26 94 27 34 1 43
-3 47 -19 3 -11 11 -20 17 -20 9 0 7 8 -4 25 -15 23 -15 25 4 35 13 7 33 7 64
0 45 -10 76 -5 76 11 0 5 11 9 25 9 14 0 25 5 25 11 0 8 -12 10 -35 6 -19 -3
-35 -2 -35 4 0 5 -7 9 -15 9 -8 0 -15 -4 -15 -10 0 -5 7 -10 15 -10 8 0 15 -5
15 -11 0 -21 -54 1 -82 33 -16 17 -28 27 -28 21 0 -5 5 -14 12 -21 9 -9 9 -12
-1 -12 -13 0 -101 83 -101 96 0 4 9 -1 19 -10 20 -18 41 -14 41 7 0 6 19 28
43 49 41 36 41 38 23 53 -24 18 -36 18 -59 1z"/>
<path d="M627 1043 c-14 -13 -7 -43 12 -53 28 -14 36 4 15 35 -18 28 -18 28
-27 18z"/>
<path d="M1150 1042 c0 -4 10 -13 23 -21 22 -14 22 -14 3 8 -20 22 -26 25 -26
13z"/>
<path d="M1535 1040 c3 -5 11 -10 16 -10 6 0 7 5 4 10 -3 6 -11 10 -16 10 -6
0 -7 -4 -4 -10z"/>
<path d="M1670 1030 c11 -11 23 -20 27 -20 3 0 -2 9 -12 20 -10 11 -22 20 -27
20 -4 0 1 -9 12 -20z"/>
<path d="M1121 1016 c-7 -8 -8 -17 -3 -20 6 -3 13 1 16 10 9 23 2 28 -13 10z"/>
<path d="M430 965 c-7 -14 -10 -28 -7 -32 4 -3 7 -1 7 5 0 7 9 21 20 32 13 13
16 20 7 20 -8 0 -20 -11 -27 -25z"/>
<path d="M1660 975 c-14 -16 -3 -20 19 -6 8 5 9 11 3 15 -5 3 -15 -1 -22 -9z"/>
<path d="M753 954 c-45 -19 -41 -27 7 -19 26 4 40 3 40 -4 0 -6 7 -11 15 -11
8 0 15 5 15 10 0 6 -4 10 -10 10 -5 0 -7 7 -4 15 8 19 -19 19 -63 -1z"/>
<path d="M1080 950 c0 -5 5 -10 10 -10 6 0 10 5 10 10 0 6 -4 10 -10 10 -5 0
-10 -4 -10 -10z"/>
<path d="M1480 945 c-9 -11 -10 -19 -3 -26 8 -8 13 -7 17 0 10 15 46 -5 46
-24 0 -8 5 -15 10 -15 14 0 12 46 -2 58 -26 20 -55 23 -68 7z"/>
<path d="M1690 950 c0 -5 5 -10 11 -10 5 0 7 5 4 10 -3 6 -8 10 -11 10 -2 0
-4 -4 -4 -10z"/>
<path d="M1603 936 c1 -6 -3 -10 -10 -9 -6 1 -14 -4 -17 -12 -7 -20 4 -18 32
4 26 22 27 28 8 28 -8 0 -14 -5 -13 -11z"/>
<path d="M564 915 c1 -27 4 -29 24 -16 11 7 10 9 -3 15 -9 3 -13 10 -10 16 3
5 2 10 -3 10 -6 0 -9 -11 -8 -25z"/>
<path d="M1665 920 c3 -5 10 -10 16 -10 5 0 9 5 9 10 0 6 -7 10 -16 10 -8 0
-12 -4 -9 -10z"/>
<path d="M1119 900 c-23 -24 -6 -40 43 -40 39 0 51 13 22 24 -8 3 -12 10 -9
16 3 5 2 10 -4 10 -5 0 -15 2 -23 4 -7 2 -20 -4 -29 -14z"/>
<path d="M1028 873 c-12 -3 -18 -14 -18 -34 0 -33 -1 -33 34 -19 19 7 26 17
26 35 0 25 -7 27 -42 18z"/>
<path d="M1588 861 c8 -4 13 -11 13 -15 -2 -17 0 -19 11 -8 10 10 10 15 -2 22
-8 5 -19 10 -25 10 -5 0 -4 -4 3 -9z"/>
<path d="M1725 861 c-4 -7 0 -8 10 -4 10 3 21 0 27 -8 8 -12 9 -11 5 1 -5 18
-33 25 -42 11z"/>
<path d="M1099 836 c9 -11 4 -17 -29 -30 -29 -11 -38 -20 -33 -31 4 -11 -1
-18 -16 -22 -23 -6 -29 -23 -8 -23 16 0 73 41 105 75 22 24 22 24 3 35 -27 14
-36 13 -22 -4z"/>
<path d="M1680 840 c0 -5 7 -10 15 -10 8 0 15 5 15 10 0 6 -7 10 -15 10 -8 0
-15 -4 -15 -10z"/>
<path d="M1500 829 c-31 -13 -32 -13 -24 -32 3 -9 12 -13 20 -10 17 6 18 -9 2
-25 -18 -18 17 -26 67 -15 35 8 44 7 53 -6 9 -14 11 -13 11 5 1 11 -4 25 -10
31 -8 8 -7 13 2 19 7 4 14 3 17 -4 5 -17 32 -15 32 3 0 11 -12 15 -46 15 -32
0 -44 -4 -42 -12 5 -14 -20 -44 -28 -35 -3 3 0 15 6 27 23 43 -4 61 -60 39z"/>
<path d="M78 805 c-13 -15 -23 -39 -23 -55 -1 -23 4 -29 25 -33 28 -6 40 0 24
11 -25 16 -33 48 -18 70 19 28 28 27 54 0 22 -24 40 -17 24 10 -18 28 -60 27
-86 -3z"/>
<path d="M557 796 c-24 -19 -26 -24 -13 -29 10 -4 16 -1 16 8 0 8 12 21 28 29
15 8 20 15 12 15 -8 0 -28 -10 -43 -23z"/>
<path d="M1814 809 c-3 -5 2 -6 11 -2 13 4 16 1 13 -17 -4 -27 -28 -40 -28
-15 0 14 -3 15 -15 5 -15 -12 -35 -4 -58 25 -5 6 -5 -6 -1 -25 3 -19 11 -41
16 -47 7 -9 7 -13 0 -13 -5 0 -12 -9 -15 -20 -7 -26 -23 -25 -38 1 -9 17 -8
23 2 30 8 5 9 9 4 9 -6 0 -21 -7 -33 -16 -12 -8 -22 -12 -22 -7 0 14 14 28 43
42 28 15 34 26 17 36 -11 7 -70 -46 -70 -63 0 -6 -8 -13 -17 -15 -16 -4 -16
-5 1 -6 15 -1 17 -6 13 -30 -4 -19 -1 -33 8 -41 8 -7 13 -21 12 -32 -1 -12 4
-23 11 -25 15 -6 17 33 2 42 -6 4 -8 11 -4 16 4 6 11 6 20 -2 8 -6 17 -9 20
-6 7 6 -18 47 -28 47 -5 0 -8 5 -8 12 0 6 11 1 24 -11 20 -19 28 -21 46 -11
27 15 41 3 17 -15 -15 -11 -16 -13 -2 -19 27 -10 17 -27 -12 -21 -26 6 -26 5
-10 -8 17 -15 23 -37 9 -37 -4 0 -13 5 -20 12 -18 18 -14 2 8 -34 11 -18 20
-38 20 -45 0 -14 60 -115 75 -125 5 -4 23 -8 38 -8 28 0 29 1 22 43 -3 23 -8
54 -11 69 -6 28 13 49 26 28 4 -7 10 -8 13 -3 3 4 -1 16 -8 26 -12 17 -14 17
-33 -3 -14 -15 -22 -18 -27 -10 -4 7 -2 16 5 20 10 6 9 9 0 15 -10 6 -9 11 5
21 10 8 16 16 13 19 -3 4 -18 -5 -33 -20 -30 -27 -29 -38 11 -92 9 -13 14 -23
11 -23 -2 0 -21 25 -42 55 -33 47 -37 59 -32 92 4 20 15 49 26 64 15 20 17 29
8 38 -9 10 -6 17 13 33 14 11 24 25 23 29 -2 5 4 9 12 9 23 0 18 -26 -10 -47
-22 -16 -23 -20 -9 -38 14 -18 16 -18 43 -2 21 12 31 13 39 5 16 -16 15 -28
-2 -28 -8 0 -16 -7 -20 -15 -9 -25 20 -17 39 11 13 20 14 28 5 40 -7 7 -10 21
-6 29 3 10 -8 6 -34 -11 -21 -14 -44 -23 -50 -19 -7 4 2 14 22 23 28 14 33 22
32 50 -2 35 4 39 27 20 12 -11 12 -11 1 2 -14 16 -119 24 -128 9z"/>
<path d="M1150 806 c0 -2 7 -6 15 -10 8 -3 15 -1 15 4 0 6 -7 10 -15 10 -8 0
-15 -2 -15 -4z"/>
<path d="M1196 792 c-7 -19 -50 -42 -79 -42 -10 0 -31 -8 -45 -19 -15 -10 -37
-22 -49 -25 -16 -5 -23 -15 -23 -31 0 -13 -8 -28 -17 -34 -10 -5 -14 -13 -10
-17 4 -5 19 6 33 24 14 18 33 32 42 32 15 -1 15 -2 2 -13 -8 -7 -24 -23 -35
-36 -17 -21 -18 -24 -2 -18 9 4 17 2 17 -3 0 -5 8 -10 18 -13 9 -2 4 -3 -13
-3 -16 1 -32 4 -35 8 -3 4 -24 4 -47 1 -39 -5 -41 -7 -41 -39 0 -31 2 -33 44
-40 42 -6 49 -12 45 -41 -1 -7 7 -13 19 -13 11 0 20 5 20 10 0 6 -5 10 -11 10
-5 0 -7 5 -3 12 5 7 11 5 21 -7 11 -16 13 -16 13 -3 0 9 7 18 15 22 11 4 15
-2 15 -27 0 -31 -1 -32 -44 -32 -24 0 -48 3 -52 8 -4 4 -20 7 -36 7 -39 0 -35
20 5 21 27 0 29 2 12 9 -42 18 -62 12 -67 -21 -5 -36 20 -59 64 -59 16 0 28
-5 28 -13 0 -9 -39 -12 -161 -12 -88 0 -163 -3 -166 -7 -2 -5 70 -8 161 -8
l166 0 0 -25 c0 -28 -7 -30 -63 -13 -37 11 -41 10 -55 -10 -18 -27 -39 -28
-47 -2 -7 22 -31 27 -37 8 -4 -10 -13 -10 -43 0 -47 14 -74 -1 -31 -18 15 -5
33 -10 39 -10 7 0 22 -15 35 -33 23 -32 23 -32 16 -5 -8 37 12 37 29 1 6 -16
17 -32 24 -36 7 -4 13 -12 13 -17 0 -16 -22 -11 -35 6 -8 11 -19 14 -33 10
-30 -10 -28 -21 3 -24 14 -1 39 -9 56 -18 17 -8 33 -13 37 -10 3 3 0 6 -6 6
-7 0 -12 4 -12 8 0 4 25 8 55 9 65 2 72 -11 13 -23 l-43 -8 43 -4 c34 -2 42
-7 42 -23 0 -18 4 -19 37 -13 20 4 64 18 97 32 41 16 78 24 111 23 62 -2 78 7
60 33 -15 19 -23 18 -65 -11 -14 -9 -2 4 25 30 28 25 53 46 58 47 10 0 9 -18
-3 -25 -17 -11 -11 -25 15 -35 30 -11 42 -37 26 -53 -6 -6 -34 -10 -63 -10
-52 1 -52 1 -13 -7 22 -4 34 -8 26 -9 -12 -1 -11 -4 1 -18 9 -10 18 -27 20
-38 2 -14 11 -20 28 -20 14 0 30 -3 36 -7 20 -13 54 3 54 27 0 19 5 22 28 19
16 -2 41 -8 56 -14 41 -15 51 -12 30 11 -24 27 -4 41 38 27 38 -13 45 -33 22
-59 -14 -16 -15 -19 -2 -14 8 3 20 16 26 29 8 18 6 25 -7 35 -14 10 -13 11 7
7 17 -3 22 -1 18 10 -3 9 1 14 13 14 10 0 21 7 25 15 3 8 12 15 20 15 10 0 14
10 14 30 -1 36 8 48 24 32 8 -8 8 -15 -2 -27 -11 -13 -8 -15 19 -15 17 0 31
-5 31 -10 0 -6 8 -5 20 2 11 7 20 18 20 25 0 7 8 17 18 22 15 9 15 10 -5 11
-13 0 -23 -4 -23 -10 0 -19 -36 -10 -59 14 -23 25 -29 64 -16 105 7 23 8 24
21 7 7 -10 11 -23 8 -30 -3 -8 8 -10 38 -7 43 4 41 7 -14 25 -21 6 -89 112
-98 151 -4 20 -12 30 -25 30 -10 0 -20 6 -23 13 -2 6 -10 12 -18 12 -8 0 -14
5 -14 10 0 6 -5 10 -10 10 -6 0 -8 -11 -4 -25 4 -16 2 -25 -6 -25 -6 0 -14 9
-17 20 -6 21 -15 25 -27 13 -4 -5 -17 -9 -29 -10 -47 -4 -83 -17 -104 -37 -52
-49 -60 -56 -76 -56 -9 0 -19 -4 -22 -10 -8 -13 -25 -13 -25 1 0 6 9 13 20 16
19 5 20 14 20 140 l0 135 -37 -4 c-30 -2 -38 1 -41 16 -3 16 0 18 25 12 15 -3
38 -9 51 -11 12 -3 22 -1 22 4 0 12 -55 27 -127 34 -43 5 -53 3 -57 -11z m-96
-142 c0 -5 -7 -7 -15 -4 -8 4 -12 10 -9 15 6 11 24 2 24 -11z m227 -25 c9 -24
-1 -27 -36 -9 -37 19 -61 13 -61 -15 0 -27 15 -34 33 -16 23 22 27 19 27 -20
0 -36 -13 -47 -24 -20 -3 8 -12 15 -21 15 -18 0 -20 -41 -3 -58 9 -9 1 -12
-37 -11 -28 0 -44 3 -37 6 17 7 17 129 0 136 -7 3 24 6 70 6 66 1 84 -2 89
-14z m-234 -9 c4 -10 0 -12 -14 -9 -10 3 -16 9 -13 14 8 13 21 11 27 -5z m-93
-36 c0 -6 -16 -8 -36 -6 -51 7 -55 16 -6 16 23 0 42 -5 42 -10z m60 -15 c-14
-8 -33 -12 -42 -9 -10 3 -18 0 -18 -7 0 -8 13 -10 45 -6 57 8 60 -9 3 -18 -28
-5 -43 -4 -46 4 -2 6 -19 11 -38 11 -19 0 -34 5 -34 10 0 6 15 10 34 10 19 0
37 4 40 8 2 4 22 9 43 10 38 2 38 2 13 -13z m470 -35 c0 -6 9 -6 26 0 34 13
33 14 44 -15 8 -21 84 -72 101 -67 12 3 -9 -70 -26 -88 -19 -21 -11 -45 28
-88 l21 -22 -22 -30 c-12 -16 -22 -33 -22 -38 0 -5 -11 -7 -25 -4 -14 2 -31
-1 -39 -7 -10 -8 -16 -9 -21 -1 -4 6 7 13 25 17 42 8 74 57 57 84 -17 27 -30
23 -23 -5 6 -24 -9 -47 -16 -25 -2 7 -13 5 -32 -5 -29 -15 -61 -12 -50 5 3 5
9 7 14 4 12 -8 50 31 50 51 0 9 9 27 20 41 29 37 25 44 -22 37 -57 -9 -74 -24
-57 -53 12 -17 11 -23 -3 -37 -19 -19 -60 -11 -52 11 3 8 12 11 20 8 18 -7 18
5 -1 23 -17 17 -20 44 -5 44 6 0 10 -4 10 -10 0 -5 5 -10 10 -10 6 0 10 7 10
15 0 15 57 35 103 35 15 0 27 4 27 10 0 5 -15 10 -32 9 -18 0 -55 2 -81 4 -56
6 -90 -16 -80 -52 3 -12 1 -21 -6 -21 -6 0 -11 10 -11 23 0 20 -2 19 -16 -8
-19 -38 -34 -53 -34 -37 0 10 -5 10 -21 2 -11 -7 -23 -9 -27 -6 -3 3 -14 -1
-24 -11 -21 -19 -23 -8 -3 27 19 33 19 79 0 86 -25 10 -7 22 27 19 18 -1 36 2
40 8 10 16 22 1 14 -18 -4 -11 -13 -14 -26 -10 -20 6 -20 5 -35 -67 -6 -30 12
-30 37 1 13 17 41 42 63 58 36 25 47 28 118 26 77 -2 103 10 48 22 -16 3 -35
13 -42 21 -15 19 -29 18 -45 -3 -13 -17 -13 -17 -14 0 0 21 -18 23 -26 2 -4
-8 -12 -15 -20 -15 -8 0 -14 -4 -14 -10 0 -5 -6 -7 -14 -4 -18 7 -10 34 10 34
7 0 21 11 31 25 19 25 33 32 33 15z m-58 -22 c-7 -7 -12 -8 -12 -2 0 14 12 26
19 19 2 -3 -1 -11 -7 -17z m206 -18 c12 -19 11 -20 -8 -8 -11 7 -20 16 -20 20
0 15 15 8 28 -12z m-651 -47 c24 -3 40 -9 37 -14 -7 -12 -64 -11 -64 1 0 6
-16 10 -35 10 -19 0 -35 5 -35 11 0 7 10 9 28 5 15 -4 46 -9 69 -13z m298 -53
c4 -7 -52 -10 -160 -10 -108 0 -164 3 -160 10 4 6 68 10 160 10 92 0 156 -4
160 -10z m-133 -50 c2 -6 16 -6 41 1 22 6 41 8 44 5 9 -9 -8 -26 -27 -26 -10
0 -25 -7 -34 -15 -8 -8 -19 -15 -24 -15 -17 0 -23 -44 -7 -56 22 -16 18 -27
-6 -21 -12 3 -40 -5 -66 -19 -45 -24 -113 -33 -113 -15 0 5 23 14 50 21 48 12
68 25 56 37 -3 3 -11 1 -18 -4 -18 -14 -68 -22 -100 -16 -32 6 -38 23 -8 23
26 0 28 40 3 41 -11 0 -13 3 -5 6 6 2 10 9 6 14 -3 5 0 9 6 9 6 0 18 7 26 15
17 17 44 20 44 5 0 -5 -8 -13 -17 -19 -26 -14 -11 -22 23 -12 19 6 23 10 9 10
-18 1 -19 2 -2 19 17 16 19 16 28 0 13 -24 31 -23 49 2 15 21 36 26 42 10z
m288 -20 c0 -6 -11 -15 -24 -20 -13 -5 -27 -14 -31 -19 -3 -6 -19 -11 -35 -11
-16 0 -32 -4 -35 -10 -7 -12 -25 -13 -25 -2 0 4 22 16 49 26 27 9 57 24 67 31
23 17 34 19 34 5z m-517 -16 c-4 -10 -13 -14 -27 -10 -11 3 -27 6 -34 6 -7 0
-10 5 -7 10 3 6 22 10 40 10 27 0 33 -3 28 -16z m-34 -30 c7 -7 -3 -12 -29
-16 -17 -2 -26 2 -28 15 -3 15 1 17 25 11 15 -4 30 -8 32 -10z m569 -9 c6 -14
8 -25 4 -25 -12 0 -32 23 -32 37 0 22 16 15 28 -12z m-36 -10 c6 -27 -1 -32
-19 -14 -12 12 -7 39 7 39 4 0 10 -11 12 -25z m-52 -20 c-14 -16 -40 -20 -40
-6 0 10 17 19 39 20 11 1 11 -2 1 -14z m-470 -5 c0 -5 -4 -10 -10 -10 -5 0
-10 5 -10 10 0 6 5 10 10 10 6 0 10 -4 10 -10z m630 -49 c0 -14 -18 -23 -30
-16 -6 4 -8 11 -5 16 8 12 35 12 35 0z m-86 -33 c-7 -11 -86 -10 -103 1 -9 6
8 9 47 8 33 -1 58 -5 56 -9z m-103 -16 c13 -10 32 -22 42 -25 10 -4 15 -12 11
-18 -4 -8 -9 -7 -15 2 -4 7 -11 10 -15 6 -4 -4 -14 2 -22 14 -8 11 -24 24 -36
29 -15 6 -16 9 -5 9 9 1 27 -7 40 -17z m154 8 c-3 -5 -13 -10 -21 -10 -8 0
-14 5 -14 10 0 6 9 10 21 10 11 0 17 -4 14 -10z"/>
<path d="M1133 284 c-4 -11 -8 -12 -13 -4 -8 13 -60 3 -60 -11 0 -5 11 -9 25
-9 14 0 25 -4 25 -10 0 -20 27 -9 38 15 15 32 15 35 2 35 -6 0 -13 -7 -17 -16z"/>
<path d="M1000 230 c0 -5 7 -10 15 -10 8 0 15 5 15 10 0 6 -7 10 -15 10 -8 0
-15 -4 -15 -10z"/>
<path d="M345 790 c4 -6 11 -8 16 -5 14 9 11 15 -7 15 -8 0 -12 -5 -9 -10z"/>
<path d="M500 790 c-13 -8 -12 -10 3 -10 9 0 17 5 17 10 0 12 -1 12 -20 0z"/>
<path d="M110 767 c0 -8 3 -17 7 -21 4 -4 9 -18 10 -32 4 -23 2 -25 -30 -19
-35 7 -65 -13 -52 -35 10 -17 25 -11 25 10 0 21 15 27 25 9 4 -6 19 -7 35 -4
23 5 32 2 45 -19 11 -17 15 -35 11 -52 -8 -29 -27 -28 -41 4 -12 28 -25 28
-25 2 0 -12 11 -32 24 -45 l24 -24 -19 -35 c-21 -41 -24 -50 -9 -41 6 4 24 34
41 68 17 34 38 70 47 80 14 15 14 17 -1 17 -9 0 -18 8 -22 19 -3 10 -14 26
-25 36 -11 10 -20 25 -20 34 -1 16 -33 61 -44 61 -3 0 -6 -6 -6 -13z"/>
<path d="M331 764 c13 -16 29 -19 29 -5 0 5 -9 11 -21 14 -16 4 -18 3 -8 -9z"/>
<path d="M635 760 c-4 -6 10 -10 34 -10 23 0 41 5 41 10 0 6 -15 10 -34 10
-19 0 -38 -4 -41 -10z"/>
<path d="M380 746 c0 -9 6 -17 13 -17 59 -7 79 -5 93 8 19 19 10 30 -11 13
-14 -11 -39 -10 -79 6 -11 4 -16 1 -16 -10z"/>
<path d="M1380 738 c0 -23 23 -46 53 -54 49 -11 27 21 -40 60 -8 4 -13 2 -13
-6z"/>
<path d="M341 726 c-9 -11 -7 -15 11 -19 29 -8 34 -2 15 17 -12 13 -17 13 -26
2z"/>
<path d="M604 722 c-12 -9 -25 -27 -29 -40 -4 -15 -12 -21 -21 -18 -8 3 -14 1
-14 -5 0 -7 -12 -8 -30 -4 -19 4 -30 3 -30 -4 0 -6 9 -11 19 -11 11 0 23 -5
26 -10 5 -8 11 -8 19 -1 7 6 23 7 37 4 18 -4 21 -3 13 6 -15 16 10 71 32 71 8
0 14 7 14 15 0 19 -10 19 -36 -3z"/>
<path d="M400 691 c0 -5 18 -11 40 -13 40 -4 53 5 24 16 -24 9 -64 7 -64 -3z"/>
<path d="M629 638 c-1 -35 -3 -78 -5 -95 -1 -18 2 -35 7 -39 5 -3 9 37 9 95 0
110 -9 140 -11 39z"/>
<path d="M930 680 c-13 -8 -13 -10 2 -10 9 0 18 -6 21 -12 2 -7 8 -10 13 -5
14 13 -19 38 -36 27z"/>
<path d="M1535 683 c-16 -3 -40 -14 -51 -25 -14 -12 -24 -16 -29 -9 -7 13 -25
15 -25 3 0 -16 42 -34 53 -23 14 14 47 14 47 1 0 -5 -8 -10 -18 -10 -10 0 -28
-9 -40 -20 -11 -11 -27 -18 -34 -16 -7 3 -25 7 -40 10 -28 6 -28 6 -28 -44 0
-27 4 -50 10 -50 5 0 25 16 44 35 20 19 43 35 51 35 25 0 57 19 88 52 15 17
31 27 35 23 4 -4 -3 -14 -15 -22 -24 -16 -30 -33 -14 -33 19 0 67 51 54 57 -7
2 -13 11 -13 19 0 8 -6 11 -15 8 -8 -4 -15 -1 -15 5 0 6 -3 10 -7 10 -5 -1
-21 -4 -38 -6z m12 -29 c-3 -3 -12 -4 -19 -1 -8 3 -5 6 6 6 11 1 17 -2 13 -5z
m-31 -59 c-26 -19 -42 -19 -26 0 7 8 20 15 29 15 13 -1 13 -3 -3 -15z"/>
<path d="M367 663 c9 -25 31 -45 41 -39 15 9 72 -32 66 -48 -3 -9 3 -17 15
-21 12 -3 21 -10 21 -16 0 -5 29 -27 65 -50 35 -23 62 -46 59 -50 -9 -15 -40
-10 -65 9 -37 27 -78 46 -86 39 -8 -9 29 -37 40 -30 5 3 15 -4 23 -16 8 -12
23 -21 32 -21 26 -1 52 -25 52 -49 0 -30 -37 -28 -52 3 -6 15 -33 35 -65 51
-48 22 -63 25 -114 19 -42 -5 -63 -3 -74 6 -13 11 -18 10 -30 -6 -19 -25 -19
-28 6 -50 12 -10 30 -38 41 -61 11 -24 24 -43 29 -43 13 0 11 11 -5 29 -7 9
-16 29 -20 45 -7 29 -7 29 30 23 21 -4 44 -13 53 -21 13 -14 13 -17 -2 -34
-18 -19 -14 -32 10 -32 10 0 13 11 11 37 -3 40 -21 54 -83 69 -27 7 -25 8 25
14 40 5 63 3 85 -8 16 -8 39 -16 50 -17 32 -4 33 -4 39 -21 5 -14 4 -15 -8 -5
-14 12 -46 5 -46 -10 0 -5 6 -11 13 -13 6 -2 28 -8 47 -14 23 -8 38 -8 44 -2
7 7 18 1 34 -17 21 -26 22 -26 9 -3 -22 37 -29 110 -11 110 33 0 7 60 -25 60
-9 0 -36 18 -60 39 -42 36 -44 40 -29 55 9 9 28 16 42 16 14 0 27 4 31 9 3 6
-18 9 -50 8 -30 -1 -50 -4 -44 -8 8 -4 8 -9 1 -13 -6 -3 -13 2 -16 12 -6 19
-69 47 -84 38 -5 -3 -14 6 -20 19 -13 28 -35 35 -25 8z"/>
<path d="M895 660 c-3 -5 -1 -10 4 -10 6 0 11 5 11 10 0 6 -2 10 -4 10 -3 0
-8 -4 -11 -10z"/>
<path d="M1373 655 c-3 -9 -3 -18 0 -21 9 -9 27 6 27 22 0 19 -19 18 -27 -1z"/>
<path d="M1820 644 c-15 -37 -13 -54 5 -48 10 4 13 13 9 26 -3 10 0 25 6 33 9
11 9 15 1 15 -6 0 -16 -12 -21 -26z"/>
<path d="M283 643 c-13 -9 -23 -20 -23 -26 0 -5 -8 -16 -17 -23 -10 -7 -14
-16 -10 -20 4 -5 12 -2 16 5 5 7 14 10 20 7 6 -4 20 3 30 16 l19 23 30 -28
c17 -17 32 -24 36 -18 4 5 -7 18 -24 27 -16 10 -30 24 -30 30 0 19 -23 23 -47
7z m16 -24 c-16 -10 -23 -4 -14 10 3 6 11 8 17 5 6 -4 5 -9 -3 -15z"/>
<path d="M730 638 c0 -5 5 -8 10 -8 16 0 8 -122 -7 -128 -8 -2 -13 5 -13 17 0
22 -24 29 -35 11 -19 -31 52 -53 96 -30 15 9 19 22 19 70 0 33 4 60 10 60 6 0
10 3 10 8 0 4 -20 7 -45 7 -25 0 -45 -3 -45 -7z"/>
<path d="M920 642 c0 -7 -7 -12 -15 -12 -8 0 -15 -4 -15 -10 0 -16 27 -11 34
6 4 9 4 19 1 22 -3 3 -5 0 -5 -6z"/>
<path d="M1395 620 c-9 -14 24 -25 36 -11 5 6 6 9 3 6 -4 -3 -13 0 -20 6 -8 7
-14 7 -19 -1z"/>
<path d="M58 604 c-20 -19 -7 -53 30 -75 52 -33 52 -33 52 -11 0 14 -10 24
-34 32 -26 8 -36 18 -38 37 -2 13 -6 21 -10 17z"/>
<path d="M410 600 c0 -5 4 -10 9 -10 5 0 7 -10 4 -21 -5 -19 -4 -20 16 -10 23
13 21 25 -10 41 -13 7 -19 7 -19 0z"/>
<path d="M1910 602 c0 -4 9 -8 19 -8 11 0 17 4 15 8 -3 4 -12 8 -20 8 -8 0
-14 -4 -14 -8z"/>
<path d="M310 585 c-7 -8 -19 -15 -27 -15 -8 0 -21 -17 -30 -37 -24 -60 -86
-151 -107 -156 -24 -7 -11 -27 18 -27 47 0 62 -49 24 -80 -13 -10 -20 -21 -17
-25 4 -3 20 8 37 24 32 33 33 54 4 99 -13 19 -12 25 3 48 9 15 26 29 37 32 12
3 15 7 9 12 -13 8 13 80 29 80 18 0 53 41 43 51 -6 6 -15 4 -23 -6z"/>
<path d="M1925 560 c-3 -5 -1 -10 4 -10 6 0 11 5 11 10 0 6 -2 10 -4 10 -3 0
-8 -4 -11 -10z"/>
<path d="M350 550 c0 -5 4 -10 9 -10 6 0 13 5 16 10 3 6 -1 10 -9 10 -9 0 -16
-4 -16 -10z"/>
<path d="M385 520 c-5 -15 -12 -19 -29 -14 -14 3 -27 -1 -36 -11 -24 -29 8
-36 57 -12 42 20 45 21 54 4 11 -19 29 -23 29 -6 0 12 -50 59 -62 59 -4 0 -10
-9 -13 -20z m-35 -35 c-7 -9 -15 -13 -17 -11 -7 7 7 26 19 26 6 0 6 -6 -2 -15z"/>
<path d="M89 483 c-5 -47 -4 -153 1 -153 4 0 12 12 19 27 9 20 9 28 0 34 -7 4
-9 18 -5 35 11 50 11 57 -1 61 -7 3 -13 1 -14 -4z"/>
<path d="M1898 473 c6 -2 12 -17 13 -31 l1 -27 7 25 c7 24 -3 40 -24 39 -5 0
-4 -3 3 -6z"/>
<path d="M1896 374 c-9 -24 -7 -28 9 -14 17 14 20 30 6 30 -5 0 -12 -7 -15
-16z"/>
<path d="M500 321 c0 -21 68 -51 152 -68 17 -3 25 -10 21 -19 -3 -8 -1 -14 5
-14 6 0 12 5 14 12 3 8 16 5 41 -11 20 -12 37 -25 37 -28 0 -11 -94 7 -110 22
-9 8 -25 12 -39 8 -17 -4 -21 -11 -17 -28 5 -21 1 -24 -42 -35 -80 -19 -214
18 -246 67 -24 37 -34 41 -43 16 -9 -24 40 -59 114 -79 35 -9 63 -21 63 -25 0
-12 86 1 150 22 30 11 66 18 80 18 17 -1 19 -3 8 -6 -10 -2 -18 -9 -18 -14 0
-5 -11 -27 -25 -49 -13 -21 -21 -41 -17 -43 4 -2 36 -5 70 -5 68 -2 102 9 102
33 0 17 -12 19 -26 5 -13 -13 -44 -2 -44 16 0 34 109 44 146 13 19 -16 18 -43
-1 -35 -19 7 -20 -18 0 -34 8 -7 31 -13 52 -14 21 -1 45 -4 53 -7 11 -3 16 6
18 38 2 32 -1 43 -11 43 -8 0 -34 8 -58 19 -24 10 -65 26 -92 35 -26 10 -73
38 -103 63 -36 29 -59 42 -63 35 -9 -15 -74 4 -121 35 -37 25 -50 28 -50 14z
m444 -218 c5 -11 1 -22 -10 -30 -21 -15 -44 -17 -44 -3 0 6 7 10 15 10 14 0
19 12 16 33 -2 15 17 7 23 -10z m46 -23 c0 -11 -4 -20 -10 -20 -5 0 -10 9 -10
20 0 11 5 20 10 20 6 0 10 -9 10 -20z"/>
<path d="M438 293 c-31 -8 -20 -26 12 -19 17 3 30 1 30 -4 0 -6 6 -10 14 -10
8 0 17 -8 20 -17 5 -12 10 -13 18 -5 15 15 -7 42 -33 42 -11 0 -19 5 -19 10 0
10 -12 11 -42 3z"/>
<path d="M310 280 c0 -5 4 -10 9 -10 6 0 13 5 16 10 3 6 -1 10 -9 10 -9 0 -16
-4 -16 -10z"/>
<path d="M324 259 c-3 -6 -1 -16 5 -22 9 -9 14 -8 21 2 7 12 11 12 25 -2 18
-19 41 -22 50 -7 3 6 -3 10 -13 10 -11 0 -25 7 -32 15 -15 17 -46 20 -56 4z"/>
<path d="M133 242 c10 -10 17 -24 17 -30 0 -7 8 -12 18 -12 10 0 27 -6 38 -14
11 -8 37 -17 57 -21 34 -7 55 -24 82 -69 6 -10 30 -22 54 -27 38 -8 49 -7 70
9 25 18 26 18 44 -1 19 -19 86 -21 77 -2 -2 6 -10 9 -17 7 -8 -2 -13 7 -13 23
0 16 -4 24 -11 19 -6 -3 -9 -15 -6 -25 7 -26 -17 -24 -35 3 -14 21 -16 21 -32
5 -19 -19 -51 -23 -61 -7 -3 5 1 10 9 10 20 0 20 7 0 27 -10 11 -18 13 -22 6
-10 -17 -65 -10 -80 9 -6 9 -28 22 -47 28 -19 6 -35 15 -35 20 0 4 -16 11 -35
14 -19 4 -39 16 -45 26 -6 11 -18 20 -27 20 -15 0 -15 -2 0 -18z"/>
<path d="M217 253 c-12 -11 -8 -23 7 -23 8 0 16 7 20 15 5 15 -14 21 -27 8z"/>
<path d="M562 229 c2 -6 8 -10 13 -10 5 0 11 4 13 10 2 6 -4 11 -13 11 -9 0
-15 -5 -13 -11z"/>
<path d="M1760 180 c-8 -5 -11 -12 -7 -16 4 -4 15 0 24 9 18 18 8 23 -17 7z"/>
<path d="M613 150 c-12 -5 -27 -19 -34 -32 l-12 -23 24 22 c13 12 35 26 49 32
14 5 18 10 10 10 -8 0 -25 -4 -37 -9z"/>
<path d="M1042 118 c-18 -18 -14 -46 9 -58 26 -14 41 -2 16 12 -13 7 -17 17
-13 34 7 27 5 29 -12 12z"/>
<path d="M1080 105 c0 -2 14 -10 31 -19 19 -10 29 -11 27 -4 -4 10 -58 32 -58
23z"/>
<path d="M1190 96 c0 -16 28 -42 36 -33 7 6 -18 47 -28 47 -5 0 -8 -6 -8 -14z"/>
<path d="M1466 91 c-7 -11 17 -21 47 -21 22 1 22 1 3 15 -22 17 -42 19 -50 6z"/>
<path d="M1308 58 c5 -5 16 -8 23 -6 8 3 3 7 -10 11 -17 4 -21 3 -13 -5z"/>
</g>
</svg>
